<svg xmlns="http://www.w3.org/2000/svg" xmlns:xlink="http://www.w3.org/1999/xlink" width="500" zoomAndPan="magnify" viewBox="0 0 375 374.999991" height="500" preserveAspectRatio="xMidYMid meet" version="1.0"><defs><g/></defs><g fill="#38a3a5" fill-opacity="1"><g transform="translate(140.528257, 204.392432)"><g><path d="M 6.859375 -7.859375 C 6.585938 -8.160156 6.222656 -8.40625 5.765625 -8.59375 C 5.316406 -8.789062 4.800781 -8.890625 4.21875 -8.890625 C 3.363281 -8.890625 2.738281 -8.726562 2.34375 -8.40625 C 1.957031 -8.082031 1.765625 -7.644531 1.765625 -7.09375 C 1.765625 -6.800781 1.816406 -6.5625 1.921875 -6.375 C 2.023438 -6.1875 2.1875 -6.023438 2.40625 -5.890625 C 2.625 -5.753906 2.898438 -5.632812 3.234375 -5.53125 C 3.578125 -5.4375 3.984375 -5.335938 4.453125 -5.234375 C 4.960938 -5.128906 5.425781 -5.007812 5.84375 -4.875 C 6.257812 -4.738281 6.609375 -4.566406 6.890625 -4.359375 C 7.179688 -4.160156 7.40625 -3.914062 7.5625 -3.625 C 7.71875 -3.332031 7.796875 -2.96875 7.796875 -2.53125 C 7.796875 -2.082031 7.707031 -1.695312 7.53125 -1.375 C 7.363281 -1.050781 7.125 -0.78125 6.8125 -0.5625 C 6.507812 -0.34375 6.144531 -0.179688 5.71875 -0.078125 C 5.289062 0.0234375 4.820312 0.078125 4.3125 0.078125 C 2.8125 0.078125 1.519531 -0.382812 0.4375 -1.3125 L 0.90625 -2.09375 C 1.082031 -1.914062 1.289062 -1.742188 1.53125 -1.578125 C 1.769531 -1.410156 2.035156 -1.265625 2.328125 -1.140625 C 2.628906 -1.023438 2.945312 -0.929688 3.28125 -0.859375 C 3.613281 -0.796875 3.96875 -0.765625 4.34375 -0.765625 C 5.113281 -0.765625 5.710938 -0.898438 6.140625 -1.171875 C 6.578125 -1.453125 6.796875 -1.875 6.796875 -2.4375 C 6.796875 -2.738281 6.734375 -2.988281 6.609375 -3.1875 C 6.484375 -3.394531 6.296875 -3.570312 6.046875 -3.71875 C 5.804688 -3.875 5.503906 -4.003906 5.140625 -4.109375 C 4.773438 -4.210938 4.351562 -4.320312 3.875 -4.4375 C 3.363281 -4.550781 2.914062 -4.671875 2.53125 -4.796875 C 2.15625 -4.929688 1.835938 -5.09375 1.578125 -5.28125 C 1.316406 -5.46875 1.117188 -5.695312 0.984375 -5.96875 C 0.859375 -6.238281 0.796875 -6.566406 0.796875 -6.953125 C 0.796875 -7.398438 0.878906 -7.796875 1.046875 -8.140625 C 1.210938 -8.492188 1.445312 -8.785156 1.75 -9.015625 C 2.0625 -9.242188 2.425781 -9.421875 2.84375 -9.546875 C 3.257812 -9.671875 3.722656 -9.734375 4.234375 -9.734375 C 4.878906 -9.734375 5.453125 -9.632812 5.953125 -9.4375 C 6.453125 -9.238281 6.910156 -8.960938 7.328125 -8.609375 Z M 6.859375 -7.859375 "/></g></g></g><g fill="#38a3a5" fill-opacity="1"><g transform="translate(148.786748, 204.392432)"><g><path d="M 4.078125 0.140625 C 3.566406 0.140625 3.09375 0.0390625 2.65625 -0.15625 C 2.226562 -0.351562 1.851562 -0.617188 1.53125 -0.953125 C 1.21875 -1.296875 0.972656 -1.6875 0.796875 -2.125 C 0.617188 -2.570312 0.53125 -3.050781 0.53125 -3.5625 C 0.53125 -4.0625 0.617188 -4.53125 0.796875 -4.96875 C 0.972656 -5.414062 1.21875 -5.800781 1.53125 -6.125 C 1.84375 -6.457031 2.21875 -6.722656 2.65625 -6.921875 C 3.09375 -7.117188 3.5625 -7.21875 4.0625 -7.21875 C 4.582031 -7.21875 5.054688 -7.117188 5.484375 -6.921875 C 5.921875 -6.722656 6.289062 -6.457031 6.59375 -6.125 C 6.90625 -5.789062 7.144531 -5.40625 7.3125 -4.96875 C 7.488281 -4.53125 7.578125 -4.066406 7.578125 -3.578125 C 7.578125 -3.503906 7.578125 -3.429688 7.578125 -3.359375 C 7.578125 -3.285156 7.570312 -3.238281 7.5625 -3.21875 L 1.5 -3.21875 C 1.519531 -2.832031 1.601562 -2.476562 1.75 -2.15625 C 1.90625 -1.832031 2.097656 -1.550781 2.328125 -1.3125 C 2.566406 -1.082031 2.835938 -0.898438 3.140625 -0.765625 C 3.453125 -0.640625 3.78125 -0.578125 4.125 -0.578125 C 4.351562 -0.578125 4.578125 -0.609375 4.796875 -0.671875 C 5.023438 -0.734375 5.234375 -0.816406 5.421875 -0.921875 C 5.617188 -1.035156 5.789062 -1.171875 5.9375 -1.328125 C 6.09375 -1.484375 6.210938 -1.65625 6.296875 -1.84375 L 7.109375 -1.640625 C 6.992188 -1.367188 6.835938 -1.125 6.640625 -0.90625 C 6.441406 -0.695312 6.207031 -0.515625 5.9375 -0.359375 C 5.675781 -0.203125 5.382812 -0.0820312 5.0625 0 C 4.75 0.09375 4.421875 0.140625 4.078125 0.140625 Z M 6.703125 -3.921875 C 6.671875 -4.296875 6.578125 -4.640625 6.421875 -4.953125 C 6.273438 -5.273438 6.085938 -5.546875 5.859375 -5.765625 C 5.628906 -5.992188 5.359375 -6.171875 5.046875 -6.296875 C 4.742188 -6.421875 4.421875 -6.484375 4.078125 -6.484375 C 3.734375 -6.484375 3.40625 -6.421875 3.09375 -6.296875 C 2.789062 -6.171875 2.523438 -5.992188 2.296875 -5.765625 C 2.066406 -5.546875 1.878906 -5.273438 1.734375 -4.953125 C 1.597656 -4.640625 1.515625 -4.296875 1.484375 -3.921875 Z M 6.703125 -3.921875 "/></g></g></g><g fill="#38a3a5" fill-opacity="1"><g transform="translate(156.773121, 204.392432)"><g><path d="M 4.5625 -6.28125 C 3.9375 -6.257812 3.390625 -6.082031 2.921875 -5.75 C 2.460938 -5.425781 2.140625 -4.976562 1.953125 -4.40625 L 1.953125 0 L 1.015625 0 L 1.015625 -7.09375 L 1.890625 -7.09375 L 1.890625 -5.390625 C 2.148438 -5.929688 2.503906 -6.351562 2.953125 -6.65625 C 3.398438 -6.96875 3.875 -7.125 4.375 -7.125 C 4.445312 -7.125 4.507812 -7.125 4.5625 -7.125 Z M 4.5625 -6.28125 "/></g></g></g><g fill="#38a3a5" fill-opacity="1"><g transform="translate(161.548626, 204.392432)"><g><path d="M 3.140625 0 L 0.265625 -7.09375 L 1.21875 -7.09375 L 3.640625 -0.859375 L 6.09375 -7.09375 L 7 -7.09375 L 4.109375 0 Z M 3.140625 0 "/></g></g></g><g fill="#38a3a5" fill-opacity="1"><g transform="translate(168.800312, 204.392432)"><g><path d="M 1.015625 0 L 1.015625 -7.09375 L 1.953125 -7.09375 L 1.953125 0 Z M 1.015625 -8.578125 L 1.015625 -9.9375 L 1.953125 -9.9375 L 1.953125 -8.578125 Z M 1.015625 -8.578125 "/></g></g></g><g fill="#38a3a5" fill-opacity="1"><g transform="translate(171.766288, 204.392432)"><g><path d="M 0.53125 -3.5625 C 0.53125 -4.0625 0.613281 -4.53125 0.78125 -4.96875 C 0.957031 -5.414062 1.203125 -5.804688 1.515625 -6.140625 C 1.828125 -6.472656 2.203125 -6.734375 2.640625 -6.921875 C 3.078125 -7.117188 3.554688 -7.21875 4.078125 -7.21875 C 4.753906 -7.21875 5.34375 -7.0625 5.84375 -6.75 C 6.34375 -6.445312 6.71875 -6.039062 6.96875 -5.53125 L 6.0625 -5.234375 C 5.863281 -5.597656 5.582031 -5.878906 5.21875 -6.078125 C 4.863281 -6.285156 4.472656 -6.390625 4.046875 -6.390625 C 3.679688 -6.390625 3.34375 -6.316406 3.03125 -6.171875 C 2.71875 -6.023438 2.441406 -5.828125 2.203125 -5.578125 C 1.972656 -5.335938 1.789062 -5.039062 1.65625 -4.6875 C 1.53125 -4.34375 1.46875 -3.96875 1.46875 -3.5625 C 1.46875 -3.164062 1.535156 -2.789062 1.671875 -2.4375 C 1.804688 -2.082031 1.988281 -1.773438 2.21875 -1.515625 C 2.457031 -1.253906 2.734375 -1.050781 3.046875 -0.90625 C 3.367188 -0.757812 3.707031 -0.6875 4.0625 -0.6875 C 4.28125 -0.6875 4.5 -0.71875 4.71875 -0.78125 C 4.945312 -0.84375 5.15625 -0.929688 5.34375 -1.046875 C 5.539062 -1.160156 5.707031 -1.285156 5.84375 -1.421875 C 5.976562 -1.566406 6.070312 -1.722656 6.125 -1.890625 L 7.03125 -1.625 C 6.9375 -1.363281 6.789062 -1.125 6.59375 -0.90625 C 6.40625 -0.695312 6.179688 -0.515625 5.921875 -0.359375 C 5.660156 -0.203125 5.375 -0.0820312 5.0625 0 C 4.75 0.09375 4.425781 0.140625 4.09375 0.140625 C 3.582031 0.140625 3.109375 0.0390625 2.671875 -0.15625 C 2.234375 -0.351562 1.851562 -0.617188 1.53125 -0.953125 C 1.21875 -1.296875 0.972656 -1.6875 0.796875 -2.125 C 0.617188 -2.570312 0.53125 -3.050781 0.53125 -3.5625 Z M 0.53125 -3.5625 "/></g></g></g><g fill="#38a3a5" fill-opacity="1"><g transform="translate(179.235663, 204.392432)"><g><path d="M 4.078125 0.140625 C 3.566406 0.140625 3.09375 0.0390625 2.65625 -0.15625 C 2.226562 -0.351562 1.851562 -0.617188 1.53125 -0.953125 C 1.21875 -1.296875 0.972656 -1.6875 0.796875 -2.125 C 0.617188 -2.570312 0.53125 -3.050781 0.53125 -3.5625 C 0.53125 -4.0625 0.617188 -4.53125 0.796875 -4.96875 C 0.972656 -5.414062 1.21875 -5.800781 1.53125 -6.125 C 1.84375 -6.457031 2.21875 -6.722656 2.65625 -6.921875 C 3.09375 -7.117188 3.5625 -7.21875 4.0625 -7.21875 C 4.582031 -7.21875 5.054688 -7.117188 5.484375 -6.921875 C 5.921875 -6.722656 6.289062 -6.457031 6.59375 -6.125 C 6.90625 -5.789062 7.144531 -5.40625 7.3125 -4.96875 C 7.488281 -4.53125 7.578125 -4.066406 7.578125 -3.578125 C 7.578125 -3.503906 7.578125 -3.429688 7.578125 -3.359375 C 7.578125 -3.285156 7.570312 -3.238281 7.5625 -3.21875 L 1.5 -3.21875 C 1.519531 -2.832031 1.601562 -2.476562 1.75 -2.15625 C 1.90625 -1.832031 2.097656 -1.550781 2.328125 -1.3125 C 2.566406 -1.082031 2.835938 -0.898438 3.140625 -0.765625 C 3.453125 -0.640625 3.78125 -0.578125 4.125 -0.578125 C 4.351562 -0.578125 4.578125 -0.609375 4.796875 -0.671875 C 5.023438 -0.734375 5.234375 -0.816406 5.421875 -0.921875 C 5.617188 -1.035156 5.789062 -1.171875 5.9375 -1.328125 C 6.09375 -1.484375 6.210938 -1.65625 6.296875 -1.84375 L 7.109375 -1.640625 C 6.992188 -1.367188 6.835938 -1.125 6.640625 -0.90625 C 6.441406 -0.695312 6.207031 -0.515625 5.9375 -0.359375 C 5.675781 -0.203125 5.382812 -0.0820312 5.0625 0 C 4.75 0.09375 4.421875 0.140625 4.078125 0.140625 Z M 6.703125 -3.921875 C 6.671875 -4.296875 6.578125 -4.640625 6.421875 -4.953125 C 6.273438 -5.273438 6.085938 -5.546875 5.859375 -5.765625 C 5.628906 -5.992188 5.359375 -6.171875 5.046875 -6.296875 C 4.742188 -6.421875 4.421875 -6.484375 4.078125 -6.484375 C 3.734375 -6.484375 3.40625 -6.421875 3.09375 -6.296875 C 2.789062 -6.171875 2.523438 -5.992188 2.296875 -5.765625 C 2.066406 -5.546875 1.878906 -5.273438 1.734375 -4.953125 C 1.597656 -4.640625 1.515625 -4.296875 1.484375 -3.921875 Z M 6.703125 -3.921875 "/></g></g></g><g fill="#38a3a5" fill-opacity="1"><g transform="translate(187.222037, 204.392432)"><g><path d="M 3.375 0.140625 C 2.820312 0.140625 2.28125 0.0507812 1.75 -0.125 C 1.226562 -0.3125 0.773438 -0.578125 0.390625 -0.921875 L 0.8125 -1.546875 C 1.21875 -1.222656 1.625 -0.976562 2.03125 -0.8125 C 2.445312 -0.65625 2.890625 -0.578125 3.359375 -0.578125 C 3.929688 -0.578125 4.382812 -0.691406 4.71875 -0.921875 C 5.0625 -1.148438 5.234375 -1.476562 5.234375 -1.90625 C 5.234375 -2.101562 5.1875 -2.265625 5.09375 -2.390625 C 5.007812 -2.523438 4.878906 -2.644531 4.703125 -2.75 C 4.523438 -2.851562 4.300781 -2.941406 4.03125 -3.015625 C 3.769531 -3.085938 3.460938 -3.164062 3.109375 -3.25 C 2.691406 -3.351562 2.332031 -3.453125 2.03125 -3.546875 C 1.738281 -3.648438 1.492188 -3.765625 1.296875 -3.890625 C 1.097656 -4.015625 0.953125 -4.171875 0.859375 -4.359375 C 0.765625 -4.546875 0.71875 -4.78125 0.71875 -5.0625 C 0.71875 -5.414062 0.785156 -5.726562 0.921875 -6 C 1.066406 -6.269531 1.257812 -6.492188 1.5 -6.671875 C 1.738281 -6.847656 2.019531 -6.984375 2.34375 -7.078125 C 2.664062 -7.171875 3.007812 -7.21875 3.375 -7.21875 C 3.914062 -7.21875 4.410156 -7.128906 4.859375 -6.953125 C 5.304688 -6.773438 5.664062 -6.539062 5.9375 -6.25 L 5.484375 -5.703125 C 5.222656 -5.972656 4.898438 -6.175781 4.515625 -6.3125 C 4.140625 -6.445312 3.75 -6.515625 3.34375 -6.515625 C 3.101562 -6.515625 2.878906 -6.488281 2.671875 -6.4375 C 2.460938 -6.394531 2.273438 -6.316406 2.109375 -6.203125 C 1.953125 -6.097656 1.828125 -5.957031 1.734375 -5.78125 C 1.648438 -5.613281 1.609375 -5.421875 1.609375 -5.203125 C 1.609375 -5.003906 1.640625 -4.847656 1.703125 -4.734375 C 1.765625 -4.617188 1.867188 -4.515625 2.015625 -4.421875 C 2.160156 -4.335938 2.34375 -4.257812 2.5625 -4.1875 C 2.789062 -4.125 3.0625 -4.054688 3.375 -3.984375 C 3.832031 -3.878906 4.234375 -3.769531 4.578125 -3.65625 C 4.921875 -3.550781 5.207031 -3.425781 5.4375 -3.28125 C 5.664062 -3.132812 5.835938 -2.957031 5.953125 -2.75 C 6.078125 -2.539062 6.140625 -2.285156 6.140625 -1.984375 C 6.140625 -1.328125 5.890625 -0.804688 5.390625 -0.421875 C 4.890625 -0.046875 4.21875 0.140625 3.375 0.140625 Z M 3.375 0.140625 "/></g></g></g><g fill="#38a3a5" fill-opacity="1"><g transform="translate(193.847879, 204.392432)"><g/></g></g><g fill="#38a3a5" fill-opacity="1"><g transform="translate(197.317259, 204.392432)"><g><path d="M 4.078125 0.140625 C 3.566406 0.140625 3.09375 0.0390625 2.65625 -0.15625 C 2.226562 -0.351562 1.851562 -0.617188 1.53125 -0.953125 C 1.21875 -1.296875 0.972656 -1.6875 0.796875 -2.125 C 0.617188 -2.570312 0.53125 -3.050781 0.53125 -3.5625 C 0.53125 -4.0625 0.617188 -4.53125 0.796875 -4.96875 C 0.972656 -5.414062 1.21875 -5.800781 1.53125 -6.125 C 1.84375 -6.457031 2.21875 -6.722656 2.65625 -6.921875 C 3.09375 -7.117188 3.5625 -7.21875 4.0625 -7.21875 C 4.582031 -7.21875 5.054688 -7.117188 5.484375 -6.921875 C 5.921875 -6.722656 6.289062 -6.457031 6.59375 -6.125 C 6.90625 -5.789062 7.144531 -5.40625 7.3125 -4.96875 C 7.488281 -4.53125 7.578125 -4.066406 7.578125 -3.578125 C 7.578125 -3.503906 7.578125 -3.429688 7.578125 -3.359375 C 7.578125 -3.285156 7.570312 -3.238281 7.5625 -3.21875 L 1.5 -3.21875 C 1.519531 -2.832031 1.601562 -2.476562 1.75 -2.15625 C 1.90625 -1.832031 2.097656 -1.550781 2.328125 -1.3125 C 2.566406 -1.082031 2.835938 -0.898438 3.140625 -0.765625 C 3.453125 -0.640625 3.78125 -0.578125 4.125 -0.578125 C 4.351562 -0.578125 4.578125 -0.609375 4.796875 -0.671875 C 5.023438 -0.734375 5.234375 -0.816406 5.421875 -0.921875 C 5.617188 -1.035156 5.789062 -1.171875 5.9375 -1.328125 C 6.09375 -1.484375 6.210938 -1.65625 6.296875 -1.84375 L 7.109375 -1.640625 C 6.992188 -1.367188 6.835938 -1.125 6.640625 -0.90625 C 6.441406 -0.695312 6.207031 -0.515625 5.9375 -0.359375 C 5.675781 -0.203125 5.382812 -0.0820312 5.0625 0 C 4.75 0.09375 4.421875 0.140625 4.078125 0.140625 Z M 6.703125 -3.921875 C 6.671875 -4.296875 6.578125 -4.640625 6.421875 -4.953125 C 6.273438 -5.273438 6.085938 -5.546875 5.859375 -5.765625 C 5.628906 -5.992188 5.359375 -6.171875 5.046875 -6.296875 C 4.742188 -6.421875 4.421875 -6.484375 4.078125 -6.484375 C 3.734375 -6.484375 3.40625 -6.421875 3.09375 -6.296875 C 2.789062 -6.171875 2.523438 -5.992188 2.296875 -5.765625 C 2.066406 -5.546875 1.878906 -5.273438 1.734375 -4.953125 C 1.597656 -4.640625 1.515625 -4.296875 1.484375 -3.921875 Z M 6.703125 -3.921875 "/></g></g></g><g fill="#38a3a5" fill-opacity="1"><g transform="translate(205.303632, 204.392432)"><g><path d="M 6.984375 0 L 6.0625 0 L 6.0625 -3.953125 C 6.0625 -4.796875 5.9375 -5.410156 5.6875 -5.796875 C 5.4375 -6.179688 5.050781 -6.375 4.53125 -6.375 C 4.257812 -6.375 3.988281 -6.320312 3.71875 -6.21875 C 3.445312 -6.113281 3.191406 -5.972656 2.953125 -5.796875 C 2.722656 -5.617188 2.515625 -5.40625 2.328125 -5.15625 C 2.148438 -4.90625 2.023438 -4.632812 1.953125 -4.34375 L 1.953125 0 L 1.015625 0 L 1.015625 -7.09375 L 1.859375 -7.09375 L 1.859375 -5.484375 C 2.148438 -6.003906 2.566406 -6.421875 3.109375 -6.734375 C 3.648438 -7.054688 4.238281 -7.21875 4.875 -7.21875 C 5.257812 -7.21875 5.585938 -7.144531 5.859375 -7 C 6.140625 -6.851562 6.359375 -6.644531 6.515625 -6.375 C 6.679688 -6.113281 6.800781 -5.789062 6.875 -5.40625 C 6.945312 -5.03125 6.984375 -4.613281 6.984375 -4.15625 Z M 6.984375 0 "/></g></g></g><g fill="#38a3a5" fill-opacity="1"><g transform="translate(213.235589, 204.392432)"><g><path d="M 4.421875 -0.34375 C 4.367188 -0.3125 4.289062 -0.269531 4.1875 -0.21875 C 4.082031 -0.175781 3.960938 -0.132812 3.828125 -0.09375 C 3.691406 -0.0507812 3.535156 -0.015625 3.359375 0.015625 C 3.191406 0.0546875 3.007812 0.078125 2.8125 0.078125 C 2.613281 0.078125 2.421875 0.0507812 2.234375 0 C 2.054688 -0.0507812 1.898438 -0.132812 1.765625 -0.25 C 1.628906 -0.363281 1.519531 -0.503906 1.4375 -0.671875 C 1.351562 -0.847656 1.3125 -1.050781 1.3125 -1.28125 L 1.3125 -6.359375 L 0.34375 -6.359375 L 0.34375 -7.09375 L 1.3125 -7.09375 L 1.3125 -9.484375 L 2.25 -9.484375 L 2.25 -7.09375 L 3.875 -7.09375 L 3.875 -6.359375 L 2.25 -6.359375 L 2.25 -1.53125 C 2.257812 -1.269531 2.347656 -1.078125 2.515625 -0.953125 C 2.691406 -0.835938 2.890625 -0.78125 3.109375 -0.78125 C 3.367188 -0.78125 3.597656 -0.820312 3.796875 -0.90625 C 3.992188 -0.988281 4.117188 -1.050781 4.171875 -1.09375 Z M 4.421875 -0.34375 "/></g></g></g><g fill="#38a3a5" fill-opacity="1"><g transform="translate(217.793404, 204.392432)"><g><path d="M 4.5625 -6.28125 C 3.9375 -6.257812 3.390625 -6.082031 2.921875 -5.75 C 2.460938 -5.425781 2.140625 -4.976562 1.953125 -4.40625 L 1.953125 0 L 1.015625 0 L 1.015625 -7.09375 L 1.890625 -7.09375 L 1.890625 -5.390625 C 2.148438 -5.929688 2.503906 -6.351562 2.953125 -6.65625 C 3.398438 -6.96875 3.875 -7.125 4.375 -7.125 C 4.445312 -7.125 4.507812 -7.125 4.5625 -7.125 Z M 4.5625 -6.28125 "/></g></g></g><g fill="#38a3a5" fill-opacity="1"><g transform="translate(222.568909, 204.392432)"><g><path d="M 4.078125 0.140625 C 3.566406 0.140625 3.09375 0.0390625 2.65625 -0.15625 C 2.226562 -0.351562 1.851562 -0.617188 1.53125 -0.953125 C 1.21875 -1.296875 0.972656 -1.6875 0.796875 -2.125 C 0.617188 -2.570312 0.53125 -3.050781 0.53125 -3.5625 C 0.53125 -4.0625 0.617188 -4.53125 0.796875 -4.96875 C 0.972656 -5.414062 1.21875 -5.800781 1.53125 -6.125 C 1.84375 -6.457031 2.21875 -6.722656 2.65625 -6.921875 C 3.09375 -7.117188 3.5625 -7.21875 4.0625 -7.21875 C 4.582031 -7.21875 5.054688 -7.117188 5.484375 -6.921875 C 5.921875 -6.722656 6.289062 -6.457031 6.59375 -6.125 C 6.90625 -5.789062 7.144531 -5.40625 7.3125 -4.96875 C 7.488281 -4.53125 7.578125 -4.066406 7.578125 -3.578125 C 7.578125 -3.503906 7.578125 -3.429688 7.578125 -3.359375 C 7.578125 -3.285156 7.570312 -3.238281 7.5625 -3.21875 L 1.5 -3.21875 C 1.519531 -2.832031 1.601562 -2.476562 1.75 -2.15625 C 1.90625 -1.832031 2.097656 -1.550781 2.328125 -1.3125 C 2.566406 -1.082031 2.835938 -0.898438 3.140625 -0.765625 C 3.453125 -0.640625 3.78125 -0.578125 4.125 -0.578125 C 4.351562 -0.578125 4.578125 -0.609375 4.796875 -0.671875 C 5.023438 -0.734375 5.234375 -0.816406 5.421875 -0.921875 C 5.617188 -1.035156 5.789062 -1.171875 5.9375 -1.328125 C 6.09375 -1.484375 6.210938 -1.65625 6.296875 -1.84375 L 7.109375 -1.640625 C 6.992188 -1.367188 6.835938 -1.125 6.640625 -0.90625 C 6.441406 -0.695312 6.207031 -0.515625 5.9375 -0.359375 C 5.675781 -0.203125 5.382812 -0.0820312 5.0625 0 C 4.75 0.09375 4.421875 0.140625 4.078125 0.140625 Z M 6.703125 -3.921875 C 6.671875 -4.296875 6.578125 -4.640625 6.421875 -4.953125 C 6.273438 -5.273438 6.085938 -5.546875 5.859375 -5.765625 C 5.628906 -5.992188 5.359375 -6.171875 5.046875 -6.296875 C 4.742188 -6.421875 4.421875 -6.484375 4.078125 -6.484375 C 3.734375 -6.484375 3.40625 -6.421875 3.09375 -6.296875 C 2.789062 -6.171875 2.523438 -5.992188 2.296875 -5.765625 C 2.066406 -5.546875 1.878906 -5.273438 1.734375 -4.953125 C 1.597656 -4.640625 1.515625 -4.296875 1.484375 -3.921875 Z M 6.703125 -3.921875 "/></g></g></g><g fill="#38a3a5" fill-opacity="1"><g transform="translate(230.555282, 204.392432)"><g/></g></g><g fill="#38a3a5" fill-opacity="1"><g transform="translate(234.024661, 204.392432)"><g><path d="M 4.640625 0.140625 C 4.046875 0.140625 3.519531 -0.0078125 3.0625 -0.3125 C 2.601562 -0.625 2.234375 -1.007812 1.953125 -1.46875 L 1.953125 2.90625 L 1.015625 2.90625 L 1.015625 -7.09375 L 1.84375 -7.09375 L 1.84375 -5.71875 C 2.132812 -6.164062 2.507812 -6.523438 2.96875 -6.796875 C 3.4375 -7.078125 3.941406 -7.21875 4.484375 -7.21875 C 4.972656 -7.21875 5.421875 -7.113281 5.828125 -6.90625 C 6.242188 -6.695312 6.597656 -6.421875 6.890625 -6.078125 C 7.191406 -5.742188 7.425781 -5.351562 7.59375 -4.90625 C 7.769531 -4.46875 7.859375 -4.007812 7.859375 -3.53125 C 7.859375 -3.039062 7.78125 -2.570312 7.625 -2.125 C 7.46875 -1.675781 7.242188 -1.285156 6.953125 -0.953125 C 6.671875 -0.617188 6.332031 -0.351562 5.9375 -0.15625 C 5.539062 0.0390625 5.109375 0.140625 4.640625 0.140625 Z M 4.375 -0.6875 C 4.757812 -0.6875 5.109375 -0.765625 5.421875 -0.921875 C 5.734375 -1.085938 6 -1.300781 6.21875 -1.5625 C 6.445312 -1.832031 6.617188 -2.140625 6.734375 -2.484375 C 6.847656 -2.828125 6.90625 -3.175781 6.90625 -3.53125 C 6.90625 -3.914062 6.835938 -4.28125 6.703125 -4.625 C 6.566406 -4.96875 6.378906 -5.269531 6.140625 -5.53125 C 5.910156 -5.800781 5.632812 -6.007812 5.3125 -6.15625 C 4.988281 -6.3125 4.640625 -6.390625 4.265625 -6.390625 C 4.035156 -6.390625 3.789062 -6.34375 3.53125 -6.25 C 3.269531 -6.15625 3.03125 -6.03125 2.8125 -5.875 C 2.59375 -5.71875 2.398438 -5.53125 2.234375 -5.3125 C 2.078125 -5.101562 1.984375 -4.878906 1.953125 -4.640625 L 1.953125 -2.46875 C 2.054688 -2.207031 2.191406 -1.96875 2.359375 -1.75 C 2.523438 -1.53125 2.710938 -1.34375 2.921875 -1.1875 C 3.140625 -1.03125 3.367188 -0.90625 3.609375 -0.8125 C 3.859375 -0.726562 4.113281 -0.6875 4.375 -0.6875 Z M 4.375 -0.6875 "/></g></g></g><g fill="#38a3a5" fill-opacity="1"><g transform="translate(242.4192, 204.392432)"><g><path d="M 2.796875 0.140625 C 2.460938 0.140625 2.148438 0.0820312 1.859375 -0.03125 C 1.578125 -0.144531 1.328125 -0.300781 1.109375 -0.5 C 0.898438 -0.695312 0.738281 -0.929688 0.625 -1.203125 C 0.507812 -1.472656 0.453125 -1.757812 0.453125 -2.0625 C 0.453125 -2.375 0.523438 -2.660156 0.671875 -2.921875 C 0.816406 -3.191406 1.019531 -3.421875 1.28125 -3.609375 C 1.539062 -3.796875 1.851562 -3.941406 2.21875 -4.046875 C 2.582031 -4.148438 2.984375 -4.203125 3.421875 -4.203125 C 3.773438 -4.203125 4.140625 -4.171875 4.515625 -4.109375 C 4.890625 -4.046875 5.222656 -3.957031 5.515625 -3.84375 L 5.515625 -4.484375 C 5.515625 -5.109375 5.335938 -5.601562 4.984375 -5.96875 C 4.628906 -6.332031 4.140625 -6.515625 3.515625 -6.515625 C 3.148438 -6.515625 2.773438 -6.441406 2.390625 -6.296875 C 2.015625 -6.148438 1.628906 -5.941406 1.234375 -5.671875 L 0.90625 -6.28125 C 1.820312 -6.90625 2.710938 -7.21875 3.578125 -7.21875 C 4.460938 -7.21875 5.160156 -6.96875 5.671875 -6.46875 C 6.179688 -5.96875 6.4375 -5.273438 6.4375 -4.390625 L 6.4375 -1.203125 C 6.4375 -0.941406 6.550781 -0.8125 6.78125 -0.8125 L 6.78125 0 C 6.625 0.03125 6.503906 0.046875 6.421875 0.046875 C 6.179688 0.046875 5.992188 -0.0078125 5.859375 -0.125 C 5.734375 -0.25 5.664062 -0.414062 5.65625 -0.625 L 5.640625 -1.1875 C 5.304688 -0.757812 4.890625 -0.429688 4.390625 -0.203125 C 3.898438 0.0234375 3.367188 0.140625 2.796875 0.140625 Z M 3.015625 -0.578125 C 3.503906 -0.578125 3.945312 -0.664062 4.34375 -0.84375 C 4.75 -1.019531 5.054688 -1.257812 5.265625 -1.5625 C 5.347656 -1.644531 5.410156 -1.734375 5.453125 -1.828125 C 5.492188 -1.921875 5.515625 -2.007812 5.515625 -2.09375 L 5.515625 -3.25 C 5.203125 -3.363281 4.878906 -3.453125 4.546875 -3.515625 C 4.222656 -3.585938 3.882812 -3.625 3.53125 -3.625 C 2.882812 -3.625 2.351562 -3.484375 1.9375 -3.203125 C 1.53125 -2.929688 1.328125 -2.578125 1.328125 -2.140625 C 1.328125 -1.921875 1.367188 -1.710938 1.453125 -1.515625 C 1.546875 -1.328125 1.664062 -1.160156 1.8125 -1.015625 C 1.96875 -0.878906 2.148438 -0.769531 2.359375 -0.6875 C 2.566406 -0.613281 2.785156 -0.578125 3.015625 -0.578125 Z M 3.015625 -0.578125 "/></g></g></g><g fill="#38a3a5" fill-opacity="1"><g transform="translate(249.834147, 204.392432)"><g><path d="M 4.5625 -6.28125 C 3.9375 -6.257812 3.390625 -6.082031 2.921875 -5.75 C 2.460938 -5.425781 2.140625 -4.976562 1.953125 -4.40625 L 1.953125 0 L 1.015625 0 L 1.015625 -7.09375 L 1.890625 -7.09375 L 1.890625 -5.390625 C 2.148438 -5.929688 2.503906 -6.351562 2.953125 -6.65625 C 3.398438 -6.96875 3.875 -7.125 4.375 -7.125 C 4.445312 -7.125 4.507812 -7.125 4.5625 -7.125 Z M 4.5625 -6.28125 "/></g></g></g><g fill="#38a3a5" fill-opacity="1"><g transform="translate(254.609651, 204.392432)"><g><path d="M 4.421875 -0.34375 C 4.367188 -0.3125 4.289062 -0.269531 4.1875 -0.21875 C 4.082031 -0.175781 3.960938 -0.132812 3.828125 -0.09375 C 3.691406 -0.0507812 3.535156 -0.015625 3.359375 0.015625 C 3.191406 0.0546875 3.007812 0.078125 2.8125 0.078125 C 2.613281 0.078125 2.421875 0.0507812 2.234375 0 C 2.054688 -0.0507812 1.898438 -0.132812 1.765625 -0.25 C 1.628906 -0.363281 1.519531 -0.503906 1.4375 -0.671875 C 1.351562 -0.847656 1.3125 -1.050781 1.3125 -1.28125 L 1.3125 -6.359375 L 0.34375 -6.359375 L 0.34375 -7.09375 L 1.3125 -7.09375 L 1.3125 -9.484375 L 2.25 -9.484375 L 2.25 -7.09375 L 3.875 -7.09375 L 3.875 -6.359375 L 2.25 -6.359375 L 2.25 -1.53125 C 2.257812 -1.269531 2.347656 -1.078125 2.515625 -0.953125 C 2.691406 -0.835938 2.890625 -0.78125 3.109375 -0.78125 C 3.367188 -0.78125 3.597656 -0.820312 3.796875 -0.90625 C 3.992188 -0.988281 4.117188 -1.050781 4.171875 -1.09375 Z M 4.421875 -0.34375 "/></g></g></g><g fill="#38a3a5" fill-opacity="1"><g transform="translate(259.167467, 204.392432)"><g><path d="M 1.015625 0 L 1.015625 -7.09375 L 1.953125 -7.09375 L 1.953125 0 Z M 1.015625 -8.578125 L 1.015625 -9.9375 L 1.953125 -9.9375 L 1.953125 -8.578125 Z M 1.015625 -8.578125 "/></g></g></g><g fill="#38a3a5" fill-opacity="1"><g transform="translate(262.133443, 204.392432)"><g><path d="M 0.53125 -3.5625 C 0.53125 -4.0625 0.613281 -4.53125 0.78125 -4.96875 C 0.957031 -5.414062 1.203125 -5.804688 1.515625 -6.140625 C 1.828125 -6.472656 2.203125 -6.734375 2.640625 -6.921875 C 3.078125 -7.117188 3.554688 -7.21875 4.078125 -7.21875 C 4.753906 -7.21875 5.34375 -7.0625 5.84375 -6.75 C 6.34375 -6.445312 6.71875 -6.039062 6.96875 -5.53125 L 6.0625 -5.234375 C 5.863281 -5.597656 5.582031 -5.878906 5.21875 -6.078125 C 4.863281 -6.285156 4.472656 -6.390625 4.046875 -6.390625 C 3.679688 -6.390625 3.34375 -6.316406 3.03125 -6.171875 C 2.71875 -6.023438 2.441406 -5.828125 2.203125 -5.578125 C 1.972656 -5.335938 1.789062 -5.039062 1.65625 -4.6875 C 1.53125 -4.34375 1.46875 -3.96875 1.46875 -3.5625 C 1.46875 -3.164062 1.535156 -2.789062 1.671875 -2.4375 C 1.804688 -2.082031 1.988281 -1.773438 2.21875 -1.515625 C 2.457031 -1.253906 2.734375 -1.050781 3.046875 -0.90625 C 3.367188 -0.757812 3.707031 -0.6875 4.0625 -0.6875 C 4.28125 -0.6875 4.5 -0.71875 4.71875 -0.78125 C 4.945312 -0.84375 5.15625 -0.929688 5.34375 -1.046875 C 5.539062 -1.160156 5.707031 -1.285156 5.84375 -1.421875 C 5.976562 -1.566406 6.070312 -1.722656 6.125 -1.890625 L 7.03125 -1.625 C 6.9375 -1.363281 6.789062 -1.125 6.59375 -0.90625 C 6.40625 -0.695312 6.179688 -0.515625 5.921875 -0.359375 C 5.660156 -0.203125 5.375 -0.0820312 5.0625 0 C 4.75 0.09375 4.425781 0.140625 4.09375 0.140625 C 3.582031 0.140625 3.109375 0.0390625 2.671875 -0.15625 C 2.234375 -0.351562 1.851562 -0.617188 1.53125 -0.953125 C 1.21875 -1.296875 0.972656 -1.6875 0.796875 -2.125 C 0.617188 -2.570312 0.53125 -3.050781 0.53125 -3.5625 Z M 0.53125 -3.5625 "/></g></g></g><g fill="#38a3a5" fill-opacity="1"><g transform="translate(269.602818, 204.392432)"><g><path d="M 3.234375 0.140625 C 2.460938 0.140625 1.890625 -0.113281 1.515625 -0.625 C 1.140625 -1.144531 0.953125 -1.910156 0.953125 -2.921875 L 0.953125 -7.09375 L 1.875 -7.09375 L 1.875 -3.09375 C 1.875 -1.488281 2.425781 -0.6875 3.53125 -0.6875 C 3.800781 -0.6875 4.066406 -0.726562 4.328125 -0.8125 C 4.585938 -0.90625 4.828125 -1.035156 5.046875 -1.203125 C 5.273438 -1.378906 5.476562 -1.582031 5.65625 -1.8125 C 5.832031 -2.050781 5.972656 -2.320312 6.078125 -2.625 L 6.078125 -7.09375 L 7.015625 -7.09375 L 7.015625 -1.203125 C 7.015625 -0.941406 7.117188 -0.8125 7.328125 -0.8125 L 7.328125 0 C 7.222656 0.0195312 7.132812 0.03125 7.0625 0.03125 C 7 0.03125 6.953125 0.03125 6.921875 0.03125 C 6.703125 0.0195312 6.523438 -0.0546875 6.390625 -0.203125 C 6.253906 -0.347656 6.1875 -0.546875 6.1875 -0.796875 L 6.1875 -1.609375 C 5.882812 -1.054688 5.46875 -0.625 4.9375 -0.3125 C 4.40625 -0.0078125 3.835938 0.140625 3.234375 0.140625 Z M 3.234375 0.140625 "/></g></g></g><g fill="#38a3a5" fill-opacity="1"><g transform="translate(277.684429, 204.392432)"><g><path d="M 1.0625 -9.9375 L 1.984375 -9.9375 L 1.984375 -1.609375 C 1.984375 -1.347656 2.054688 -1.140625 2.203125 -0.984375 C 2.347656 -0.835938 2.550781 -0.765625 2.8125 -0.765625 C 2.914062 -0.765625 3.035156 -0.773438 3.171875 -0.796875 C 3.304688 -0.828125 3.429688 -0.863281 3.546875 -0.90625 L 3.71875 -0.15625 C 3.539062 -0.0820312 3.328125 -0.0234375 3.078125 0.015625 C 2.828125 0.0546875 2.613281 0.078125 2.4375 0.078125 C 2.007812 0.078125 1.671875 -0.0390625 1.421875 -0.28125 C 1.179688 -0.519531 1.0625 -0.859375 1.0625 -1.296875 Z M 1.0625 -9.9375 "/></g></g></g><g fill="#38a3a5" fill-opacity="1"><g transform="translate(281.385105, 204.392432)"><g><path d="M 1.015625 0 L 1.015625 -7.09375 L 1.953125 -7.09375 L 1.953125 0 Z M 1.015625 -8.578125 L 1.015625 -9.9375 L 1.953125 -9.9375 L 1.953125 -8.578125 Z M 1.015625 -8.578125 "/></g></g></g><g fill="#38a3a5" fill-opacity="1"><g transform="translate(284.351082, 204.392432)"><g><path d="M 4.078125 0.140625 C 3.566406 0.140625 3.09375 0.0390625 2.65625 -0.15625 C 2.226562 -0.351562 1.851562 -0.617188 1.53125 -0.953125 C 1.21875 -1.296875 0.972656 -1.6875 0.796875 -2.125 C 0.617188 -2.570312 0.53125 -3.050781 0.53125 -3.5625 C 0.53125 -4.0625 0.617188 -4.53125 0.796875 -4.96875 C 0.972656 -5.414062 1.21875 -5.800781 1.53125 -6.125 C 1.84375 -6.457031 2.21875 -6.722656 2.65625 -6.921875 C 3.09375 -7.117188 3.5625 -7.21875 4.0625 -7.21875 C 4.582031 -7.21875 5.054688 -7.117188 5.484375 -6.921875 C 5.921875 -6.722656 6.289062 -6.457031 6.59375 -6.125 C 6.90625 -5.789062 7.144531 -5.40625 7.3125 -4.96875 C 7.488281 -4.53125 7.578125 -4.066406 7.578125 -3.578125 C 7.578125 -3.503906 7.578125 -3.429688 7.578125 -3.359375 C 7.578125 -3.285156 7.570312 -3.238281 7.5625 -3.21875 L 1.5 -3.21875 C 1.519531 -2.832031 1.601562 -2.476562 1.75 -2.15625 C 1.90625 -1.832031 2.097656 -1.550781 2.328125 -1.3125 C 2.566406 -1.082031 2.835938 -0.898438 3.140625 -0.765625 C 3.453125 -0.640625 3.78125 -0.578125 4.125 -0.578125 C 4.351562 -0.578125 4.578125 -0.609375 4.796875 -0.671875 C 5.023438 -0.734375 5.234375 -0.816406 5.421875 -0.921875 C 5.617188 -1.035156 5.789062 -1.171875 5.9375 -1.328125 C 6.09375 -1.484375 6.210938 -1.65625 6.296875 -1.84375 L 7.109375 -1.640625 C 6.992188 -1.367188 6.835938 -1.125 6.640625 -0.90625 C 6.441406 -0.695312 6.207031 -0.515625 5.9375 -0.359375 C 5.675781 -0.203125 5.382812 -0.0820312 5.0625 0 C 4.75 0.09375 4.421875 0.140625 4.078125 0.140625 Z M 6.703125 -3.921875 C 6.671875 -4.296875 6.578125 -4.640625 6.421875 -4.953125 C 6.273438 -5.273438 6.085938 -5.546875 5.859375 -5.765625 C 5.628906 -5.992188 5.359375 -6.171875 5.046875 -6.296875 C 4.742188 -6.421875 4.421875 -6.484375 4.078125 -6.484375 C 3.734375 -6.484375 3.40625 -6.421875 3.09375 -6.296875 C 2.789062 -6.171875 2.523438 -5.992188 2.296875 -5.765625 C 2.066406 -5.546875 1.878906 -5.273438 1.734375 -4.953125 C 1.597656 -4.640625 1.515625 -4.296875 1.484375 -3.921875 Z M 6.703125 -3.921875 "/></g></g></g><g fill="#38a3a5" fill-opacity="1"><g transform="translate(292.337455, 204.392432)"><g><path d="M 4.5625 -6.28125 C 3.9375 -6.257812 3.390625 -6.082031 2.921875 -5.75 C 2.460938 -5.425781 2.140625 -4.976562 1.953125 -4.40625 L 1.953125 0 L 1.015625 0 L 1.015625 -7.09375 L 1.890625 -7.09375 L 1.890625 -5.390625 C 2.148438 -5.929688 2.503906 -6.351562 2.953125 -6.65625 C 3.398438 -6.96875 3.875 -7.125 4.375 -7.125 C 4.445312 -7.125 4.507812 -7.125 4.5625 -7.125 Z M 4.5625 -6.28125 "/></g></g></g><g fill="#38a3a5" fill-opacity="1"><g transform="translate(297.11296, 204.392432)"><g><path d="M 3.375 0.140625 C 2.820312 0.140625 2.28125 0.0507812 1.75 -0.125 C 1.226562 -0.3125 0.773438 -0.578125 0.390625 -0.921875 L 0.8125 -1.546875 C 1.21875 -1.222656 1.625 -0.976562 2.03125 -0.8125 C 2.445312 -0.65625 2.890625 -0.578125 3.359375 -0.578125 C 3.929688 -0.578125 4.382812 -0.691406 4.71875 -0.921875 C 5.0625 -1.148438 5.234375 -1.476562 5.234375 -1.90625 C 5.234375 -2.101562 5.1875 -2.265625 5.09375 -2.390625 C 5.007812 -2.523438 4.878906 -2.644531 4.703125 -2.75 C 4.523438 -2.851562 4.300781 -2.941406 4.03125 -3.015625 C 3.769531 -3.085938 3.460938 -3.164062 3.109375 -3.25 C 2.691406 -3.351562 2.332031 -3.453125 2.03125 -3.546875 C 1.738281 -3.648438 1.492188 -3.765625 1.296875 -3.890625 C 1.097656 -4.015625 0.953125 -4.171875 0.859375 -4.359375 C 0.765625 -4.546875 0.71875 -4.78125 0.71875 -5.0625 C 0.71875 -5.414062 0.785156 -5.726562 0.921875 -6 C 1.066406 -6.269531 1.257812 -6.492188 1.5 -6.671875 C 1.738281 -6.847656 2.019531 -6.984375 2.34375 -7.078125 C 2.664062 -7.171875 3.007812 -7.21875 3.375 -7.21875 C 3.914062 -7.21875 4.410156 -7.128906 4.859375 -6.953125 C 5.304688 -6.773438 5.664062 -6.539062 5.9375 -6.25 L 5.484375 -5.703125 C 5.222656 -5.972656 4.898438 -6.175781 4.515625 -6.3125 C 4.140625 -6.445312 3.75 -6.515625 3.34375 -6.515625 C 3.101562 -6.515625 2.878906 -6.488281 2.671875 -6.4375 C 2.460938 -6.394531 2.273438 -6.316406 2.109375 -6.203125 C 1.953125 -6.097656 1.828125 -5.957031 1.734375 -5.78125 C 1.648438 -5.613281 1.609375 -5.421875 1.609375 -5.203125 C 1.609375 -5.003906 1.640625 -4.847656 1.703125 -4.734375 C 1.765625 -4.617188 1.867188 -4.515625 2.015625 -4.421875 C 2.160156 -4.335938 2.34375 -4.257812 2.5625 -4.1875 C 2.789062 -4.125 3.0625 -4.054688 3.375 -3.984375 C 3.832031 -3.878906 4.234375 -3.769531 4.578125 -3.65625 C 4.921875 -3.550781 5.207031 -3.425781 5.4375 -3.28125 C 5.664062 -3.132812 5.835938 -2.957031 5.953125 -2.75 C 6.078125 -2.539062 6.140625 -2.285156 6.140625 -1.984375 C 6.140625 -1.328125 5.890625 -0.804688 5.390625 -0.421875 C 4.890625 -0.046875 4.21875 0.140625 3.375 0.140625 Z M 3.375 0.140625 "/></g></g></g><g fill="#29577e" fill-opacity="1"><g transform="translate(71.392606, 184.350619)"><g><path d="M 1.640625 0 L 1.640625 -15.8125 L 8.34375 -15.8125 C 9.070312 -15.8125 9.742188 -15.65625 10.359375 -15.34375 C 10.972656 -15.039062 11.503906 -14.640625 11.953125 -14.140625 C 12.398438 -13.648438 12.75 -13.085938 13 -12.453125 C 13.25 -11.828125 13.375 -11.191406 13.375 -10.546875 C 13.375 -9.878906 13.253906 -9.226562 13.015625 -8.59375 C 12.785156 -7.96875 12.453125 -7.410156 12.015625 -6.921875 C 11.585938 -6.429688 11.066406 -6.035156 10.453125 -5.734375 C 9.847656 -5.441406 9.1875 -5.296875 8.46875 -5.296875 L 4.71875 -5.296875 L 4.71875 0 Z M 4.71875 -8 L 8.28125 -8 C 8.84375 -8 9.3125 -8.226562 9.6875 -8.6875 C 10.070312 -9.144531 10.265625 -9.765625 10.265625 -10.546875 C 10.265625 -10.953125 10.203125 -11.3125 10.078125 -11.625 C 9.960938 -11.945312 9.804688 -12.21875 9.609375 -12.4375 C 9.421875 -12.664062 9.195312 -12.832031 8.9375 -12.9375 C 8.675781 -13.050781 8.414062 -13.109375 8.15625 -13.109375 L 4.71875 -13.109375 Z M 4.71875 -8 "/></g></g></g><g fill="#29577e" fill-opacity="1"><g transform="translate(90.340892, 184.350619)"><g><path d="M 1.640625 0 L 1.640625 -15.8125 L 8.640625 -15.8125 C 9.367188 -15.8125 10.039062 -15.65625 10.65625 -15.34375 C 11.269531 -15.039062 11.800781 -14.640625 12.25 -14.140625 C 12.695312 -13.648438 13.046875 -13.085938 13.296875 -12.453125 C 13.546875 -11.828125 13.671875 -11.191406 13.671875 -10.546875 C 13.671875 -9.523438 13.414062 -8.59375 12.90625 -7.75 C 12.394531 -6.914062 11.703125 -6.3125 10.828125 -5.9375 L 14.421875 0 L 10.984375 0 L 7.75 -5.296875 L 4.71875 -5.296875 L 4.71875 0 Z M 4.71875 -8 L 8.578125 -8 C 8.859375 -8 9.117188 -8.0625 9.359375 -8.1875 C 9.609375 -8.320312 9.820312 -8.503906 10 -8.734375 C 10.175781 -8.960938 10.316406 -9.234375 10.421875 -9.546875 C 10.523438 -9.859375 10.578125 -10.191406 10.578125 -10.546875 C 10.578125 -10.921875 10.515625 -11.265625 10.390625 -11.578125 C 10.273438 -11.890625 10.117188 -12.160156 9.921875 -12.390625 C 9.722656 -12.617188 9.492188 -12.796875 9.234375 -12.921875 C 8.972656 -13.046875 8.707031 -13.109375 8.4375 -13.109375 L 4.71875 -13.109375 Z M 4.71875 -8 "/></g></g></g><g fill="#29577e" fill-opacity="1"><g transform="translate(110.224184, 184.350619)"><g><path d="M 12.625 -2.6875 L 12.625 0 L 1.640625 0 L 1.640625 -15.8125 L 12.421875 -15.8125 L 12.421875 -13.109375 L 4.71875 -13.109375 L 4.71875 -9.3125 L 11.375 -9.3125 L 11.375 -6.8125 L 4.71875 -6.8125 L 4.71875 -2.6875 Z M 12.625 -2.6875 "/></g></g></g><g fill="#29577e" fill-opacity="1"><g transform="translate(128.682698, 184.350619)"><g><path d="M 11.0625 -11.671875 C 10.957031 -11.773438 10.769531 -11.914062 10.5 -12.09375 C 10.226562 -12.269531 9.894531 -12.441406 9.5 -12.609375 C 9.101562 -12.785156 8.675781 -12.929688 8.21875 -13.046875 C 7.757812 -13.160156 7.289062 -13.21875 6.8125 -13.21875 C 5.96875 -13.21875 5.335938 -13.0625 4.921875 -12.75 C 4.503906 -12.445312 4.296875 -12.007812 4.296875 -11.4375 C 4.296875 -11.113281 4.375 -10.84375 4.53125 -10.625 C 4.6875 -10.414062 4.910156 -10.226562 5.203125 -10.0625 C 5.503906 -9.894531 5.878906 -9.742188 6.328125 -9.609375 C 6.785156 -9.484375 7.3125 -9.347656 7.90625 -9.203125 C 8.675781 -8.992188 9.375 -8.769531 10 -8.53125 C 10.632812 -8.289062 11.171875 -7.992188 11.609375 -7.640625 C 12.046875 -7.285156 12.382812 -6.859375 12.625 -6.359375 C 12.863281 -5.859375 12.984375 -5.242188 12.984375 -4.515625 C 12.984375 -3.671875 12.820312 -2.945312 12.5 -2.34375 C 12.1875 -1.75 11.753906 -1.265625 11.203125 -0.890625 C 10.660156 -0.515625 10.035156 -0.242188 9.328125 -0.078125 C 8.628906 0.0859375 7.894531 0.171875 7.125 0.171875 C 5.9375 0.171875 4.765625 -0.00390625 3.609375 -0.359375 C 2.453125 -0.710938 1.410156 -1.21875 0.484375 -1.875 L 1.84375 -4.515625 C 1.976562 -4.378906 2.21875 -4.203125 2.5625 -3.984375 C 2.914062 -3.773438 3.328125 -3.5625 3.796875 -3.34375 C 4.273438 -3.132812 4.800781 -2.953125 5.375 -2.796875 C 5.957031 -2.648438 6.554688 -2.578125 7.171875 -2.578125 C 8.859375 -2.578125 9.703125 -3.117188 9.703125 -4.203125 C 9.703125 -4.546875 9.601562 -4.835938 9.40625 -5.078125 C 9.21875 -5.316406 8.945312 -5.523438 8.59375 -5.703125 C 8.238281 -5.878906 7.804688 -6.039062 7.296875 -6.1875 C 6.796875 -6.332031 6.234375 -6.5 5.609375 -6.6875 C 4.847656 -6.882812 4.191406 -7.101562 3.640625 -7.34375 C 3.085938 -7.59375 2.625 -7.882812 2.25 -8.21875 C 1.875 -8.5625 1.59375 -8.953125 1.40625 -9.390625 C 1.226562 -9.828125 1.140625 -10.347656 1.140625 -10.953125 C 1.140625 -11.753906 1.285156 -12.46875 1.578125 -13.09375 C 1.878906 -13.71875 2.289062 -14.238281 2.8125 -14.65625 C 3.34375 -15.070312 3.957031 -15.382812 4.65625 -15.59375 C 5.351562 -15.8125 6.101562 -15.921875 6.90625 -15.921875 C 8.019531 -15.921875 9.039062 -15.742188 9.96875 -15.390625 C 10.90625 -15.046875 11.722656 -14.632812 12.421875 -14.15625 Z M 11.0625 -11.671875 "/></g></g></g><g fill="#29577e" fill-opacity="1"><g transform="translate(147.408354, 184.350619)"><g><path d="M 13.46875 -13.109375 L 8.421875 -13.109375 L 8.421875 0 L 5.359375 0 L 5.359375 -13.109375 L 0.3125 -13.109375 L 0.3125 -15.8125 L 13.46875 -15.8125 Z M 13.46875 -13.109375 "/></g></g></g><g fill="#29577e" fill-opacity="1"><g transform="translate(166.267591, 184.350619)"><g><path d="M 6.140625 -15.8125 L 8.859375 -15.8125 L 14.875 0 L 11.71875 0 L 10.25 -3.9375 L 4.71875 -3.9375 L 3.265625 0 L 0.109375 0 Z M 9.6875 -6.09375 L 7.5 -12.3125 L 5.234375 -6.09375 Z M 9.6875 -6.09375 "/></g></g></g><g fill="#29577e" fill-opacity="1"><g transform="translate(186.306731, 184.350619)"><g/></g></g><g fill="#29577e" fill-opacity="1"><g transform="translate(196.728607, 184.350619)"><g><path d="M 1.640625 0 L 1.640625 -15.8125 L 8.34375 -15.8125 C 9.070312 -15.8125 9.742188 -15.65625 10.359375 -15.34375 C 10.972656 -15.039062 11.503906 -14.640625 11.953125 -14.140625 C 12.398438 -13.648438 12.75 -13.085938 13 -12.453125 C 13.25 -11.828125 13.375 -11.191406 13.375 -10.546875 C 13.375 -9.878906 13.253906 -9.226562 13.015625 -8.59375 C 12.785156 -7.96875 12.453125 -7.410156 12.015625 -6.921875 C 11.585938 -6.429688 11.066406 -6.035156 10.453125 -5.734375 C 9.847656 -5.441406 9.1875 -5.296875 8.46875 -5.296875 L 4.71875 -5.296875 L 4.71875 0 Z M 4.71875 -8 L 8.28125 -8 C 8.84375 -8 9.3125 -8.226562 9.6875 -8.6875 C 10.070312 -9.144531 10.265625 -9.765625 10.265625 -10.546875 C 10.265625 -10.953125 10.203125 -11.3125 10.078125 -11.625 C 9.960938 -11.945312 9.804688 -12.21875 9.609375 -12.4375 C 9.421875 -12.664062 9.195312 -12.832031 8.9375 -12.9375 C 8.675781 -13.050781 8.414062 -13.109375 8.15625 -13.109375 L 4.71875 -13.109375 Z M 4.71875 -8 "/></g></g></g><g fill="#29577e" fill-opacity="1"><g transform="translate(215.676891, 184.350619)"><g><path d="M 8.390625 0.109375 C 7.234375 0.109375 6.179688 -0.113281 5.234375 -0.5625 C 4.296875 -1.019531 3.488281 -1.625 2.8125 -2.375 C 2.132812 -3.125 1.609375 -3.976562 1.234375 -4.9375 C 0.867188 -5.90625 0.6875 -6.894531 0.6875 -7.90625 C 0.6875 -8.957031 0.882812 -9.960938 1.28125 -10.921875 C 1.675781 -11.890625 2.21875 -12.742188 2.90625 -13.484375 C 3.59375 -14.234375 4.410156 -14.828125 5.359375 -15.265625 C 6.316406 -15.703125 7.351562 -15.921875 8.46875 -15.921875 C 9.601562 -15.921875 10.640625 -15.6875 11.578125 -15.21875 C 12.523438 -14.75 13.332031 -14.132812 14 -13.375 C 14.664062 -12.625 15.1875 -11.765625 15.5625 -10.796875 C 15.9375 -9.835938 16.125 -8.859375 16.125 -7.859375 C 16.125 -6.804688 15.929688 -5.800781 15.546875 -4.84375 C 15.160156 -3.882812 14.625 -3.035156 13.9375 -2.296875 C 13.257812 -1.566406 12.441406 -0.984375 11.484375 -0.546875 C 10.535156 -0.109375 9.503906 0.109375 8.390625 0.109375 Z M 3.8125 -7.90625 C 3.8125 -7.21875 3.914062 -6.554688 4.125 -5.921875 C 4.332031 -5.285156 4.628906 -4.722656 5.015625 -4.234375 C 5.410156 -3.742188 5.894531 -3.347656 6.46875 -3.046875 C 7.039062 -2.753906 7.691406 -2.609375 8.421875 -2.609375 C 9.160156 -2.609375 9.816406 -2.757812 10.390625 -3.0625 C 10.960938 -3.363281 11.441406 -3.765625 11.828125 -4.265625 C 12.222656 -4.773438 12.519531 -5.34375 12.71875 -5.96875 C 12.925781 -6.601562 13.03125 -7.25 13.03125 -7.90625 C 13.03125 -8.582031 12.921875 -9.238281 12.703125 -9.875 C 12.484375 -10.519531 12.175781 -11.085938 11.78125 -11.578125 C 11.394531 -12.066406 10.914062 -12.457031 10.34375 -12.75 C 9.769531 -13.039062 9.128906 -13.1875 8.421875 -13.1875 C 7.671875 -13.1875 7.003906 -13.03125 6.421875 -12.71875 C 5.847656 -12.414062 5.367188 -12.015625 4.984375 -11.515625 C 4.597656 -11.023438 4.304688 -10.460938 4.109375 -9.828125 C 3.910156 -9.203125 3.8125 -8.5625 3.8125 -7.90625 Z M 3.8125 -7.90625 "/></g></g></g><g fill="#29577e" fill-opacity="1"><g transform="translate(237.586058, 184.350619)"><g><path d="M 1.640625 0 L 1.640625 -15.8125 L 4.71875 -15.8125 L 4.71875 0 Z M 1.640625 0 "/></g></g></g><g fill="#29577e" fill-opacity="1"><g transform="translate(249.031999, 184.350619)"><g><path d="M 4.71875 -10.125 L 4.71875 0 L 1.640625 0 L 1.640625 -15.8125 L 4.03125 -15.8125 L 12.265625 -5.4375 L 12.265625 -15.78125 L 15.34375 -15.78125 L 15.34375 0 L 12.84375 0 Z M 4.71875 -10.125 "/></g></g></g><g fill="#29577e" fill-opacity="1"><g transform="translate(271.096974, 184.350619)"><g><path d="M 13.46875 -13.109375 L 8.421875 -13.109375 L 8.421875 0 L 5.359375 0 L 5.359375 -13.109375 L 0.3125 -13.109375 L 0.3125 -15.8125 L 13.46875 -15.8125 Z M 13.46875 -13.109375 "/></g></g></g><g fill="#29577e" fill-opacity="1"><g transform="translate(289.95622, 184.350619)"><g><path d="M 11.0625 -11.671875 C 10.957031 -11.773438 10.769531 -11.914062 10.5 -12.09375 C 10.226562 -12.269531 9.894531 -12.441406 9.5 -12.609375 C 9.101562 -12.785156 8.675781 -12.929688 8.21875 -13.046875 C 7.757812 -13.160156 7.289062 -13.21875 6.8125 -13.21875 C 5.96875 -13.21875 5.335938 -13.0625 4.921875 -12.75 C 4.503906 -12.445312 4.296875 -12.007812 4.296875 -11.4375 C 4.296875 -11.113281 4.375 -10.84375 4.53125 -10.625 C 4.6875 -10.414062 4.910156 -10.226562 5.203125 -10.0625 C 5.503906 -9.894531 5.878906 -9.742188 6.328125 -9.609375 C 6.785156 -9.484375 7.3125 -9.347656 7.90625 -9.203125 C 8.675781 -8.992188 9.375 -8.769531 10 -8.53125 C 10.632812 -8.289062 11.171875 -7.992188 11.609375 -7.640625 C 12.046875 -7.285156 12.382812 -6.859375 12.625 -6.359375 C 12.863281 -5.859375 12.984375 -5.242188 12.984375 -4.515625 C 12.984375 -3.671875 12.820312 -2.945312 12.5 -2.34375 C 12.1875 -1.75 11.753906 -1.265625 11.203125 -0.890625 C 10.660156 -0.515625 10.035156 -0.242188 9.328125 -0.078125 C 8.628906 0.0859375 7.894531 0.171875 7.125 0.171875 C 5.9375 0.171875 4.765625 -0.00390625 3.609375 -0.359375 C 2.453125 -0.710938 1.410156 -1.21875 0.484375 -1.875 L 1.84375 -4.515625 C 1.976562 -4.378906 2.21875 -4.203125 2.5625 -3.984375 C 2.914062 -3.773438 3.328125 -3.5625 3.796875 -3.34375 C 4.273438 -3.132812 4.800781 -2.953125 5.375 -2.796875 C 5.957031 -2.648438 6.554688 -2.578125 7.171875 -2.578125 C 8.859375 -2.578125 9.703125 -3.117188 9.703125 -4.203125 C 9.703125 -4.546875 9.601562 -4.835938 9.40625 -5.078125 C 9.21875 -5.316406 8.945312 -5.523438 8.59375 -5.703125 C 8.238281 -5.878906 7.804688 -6.039062 7.296875 -6.1875 C 6.796875 -6.332031 6.234375 -6.5 5.609375 -6.6875 C 4.847656 -6.882812 4.191406 -7.101562 3.640625 -7.34375 C 3.085938 -7.59375 2.625 -7.882812 2.25 -8.21875 C 1.875 -8.5625 1.59375 -8.953125 1.40625 -9.390625 C 1.226562 -9.828125 1.140625 -10.347656 1.140625 -10.953125 C 1.140625 -11.753906 1.285156 -12.46875 1.578125 -13.09375 C 1.878906 -13.71875 2.289062 -14.238281 2.8125 -14.65625 C 3.34375 -15.070312 3.957031 -15.382812 4.65625 -15.59375 C 5.351562 -15.8125 6.101562 -15.921875 6.90625 -15.921875 C 8.019531 -15.921875 9.039062 -15.742188 9.96875 -15.390625 C 10.90625 -15.046875 11.722656 -14.632812 12.421875 -14.15625 Z M 11.0625 -11.671875 "/></g></g></g><path stroke-linecap="butt" transform="matrix(0.000000000000000046, -0.754891, 0.75, 0.000000000000000046, 188.837438, 191.50049)" fill="none" stroke-linejoin="miter" d="M 0.000648869 0.498 L 40.745379 0.498 " stroke="#38a3a5" stroke-width="1" stroke-opacity="1" stroke-miterlimit="4"/></svg>